<svg width="130" height="130" viewBox="0 0 130 130" fill="none" xmlns="http://www.w3.org/2000/svg">
<path d="M109.294 57.8954C109.231 56.3647 109.007 54.8167 108.531 53.2802C108.296 52.512 107.987 51.7438 107.597 51.0042C107.499 50.8207 107.396 50.6373 107.287 50.4538C107.236 50.3621 107.173 50.2703 107.115 50.1843C107.058 50.0926 106.995 50.0066 106.938 49.9206C106.691 49.5709 106.416 49.2326 106.112 48.9173C105.814 48.602 105.487 48.3039 105.143 48.0344C104.971 47.8968 104.793 47.7707 104.61 47.6446C104.518 47.5815 104.427 47.5242 104.335 47.4668L104.197 47.3808L104.06 47.3006C103.693 47.0827 103.314 46.8878 102.924 46.7158C102.535 46.5438 102.128 46.4005 101.715 46.2858C100.889 46.0565 100.029 45.9418 99.1864 45.9475C98.7679 45.9533 98.3494 45.9819 97.9366 46.0393C97.5295 46.0966 97.1282 46.1826 96.7383 46.2915C96.3485 46.3947 95.9701 46.5266 95.6032 46.6699C95.5401 46.2801 95.4656 45.8959 95.3738 45.5061C95.1617 44.5716 94.8693 43.6313 94.4565 42.7026C94.0438 41.7795 93.5106 40.8622 92.8169 40.0367C92.4671 39.6239 92.083 39.234 91.6588 38.8786C91.2345 38.5231 90.7759 38.2135 90.3 37.9383C89.8241 37.6689 89.3139 37.4453 88.8036 37.2618C88.2877 37.0841 87.7659 36.9522 87.2385 36.8605C86.711 36.7688 86.1836 36.7229 85.6561 36.7114C85.3924 36.7114 85.1344 36.7114 84.8707 36.7286C84.7388 36.7344 84.6127 36.7401 84.4808 36.7573L84.2859 36.7745L84.091 36.7974C83.0648 36.9178 82.0729 37.1758 81.1384 37.5198C80.2039 37.8638 79.321 38.3052 78.4897 38.8098C78.2202 38.9703 77.9622 39.1423 77.71 39.32C77.7444 39.1709 77.7788 39.0276 77.8132 38.8786C77.968 38.1848 78.0998 37.4854 78.2088 36.7802C78.2661 36.4248 78.3177 36.0693 78.3636 35.7138C78.4094 35.3584 78.4496 34.9972 78.484 34.6417C78.5012 34.464 78.5184 34.2806 78.5298 34.1028C78.547 33.9251 78.5585 33.7416 78.57 33.5582C78.5929 33.197 78.6044 32.8301 78.6158 32.4689L78.6273 31.9185V31.3681L78.6158 30.8177C78.6101 30.6343 78.6044 30.4508 78.5929 30.2673C78.5585 29.5278 78.4954 28.7882 78.398 28.0486C78.3005 27.309 78.1744 26.5637 78.0024 25.8184C77.6584 24.3335 77.1367 22.8601 76.3914 21.4555C76.0187 20.756 75.5887 20.0738 75.1014 19.4202C74.8549 19.0934 74.6026 18.7781 74.3274 18.4685C74.058 18.1589 73.7656 17.8608 73.4674 17.5741C73.1693 17.2875 72.8483 17.0123 72.5215 16.7486C72.189 16.4848 71.845 16.2383 71.4895 16.0032C71.3978 15.9459 71.306 15.8886 71.22 15.8313L71.0824 15.7453L70.9449 15.665C70.8531 15.6134 70.7614 15.5561 70.6639 15.5045L70.3773 15.3554C69.9931 15.1605 69.5976 14.977 69.1962 14.8222C68.7892 14.6674 68.3764 14.5298 67.9579 14.4152C67.8547 14.3865 67.7457 14.3636 67.6426 14.3349C67.5394 14.3062 67.4304 14.2833 67.3215 14.2661L67.1552 14.2317L67.075 14.2145L66.9947 14.203L66.6851 14.1572L66.3755 14.1113C66.3239 14.1056 66.2723 14.0941 66.2207 14.0884L66.0659 14.0712L65.441 14.0196C65.0225 14.0081 64.604 13.9852 64.1855 14.0138C63.7669 14.0196 63.3484 14.0712 62.9299 14.117C62.5171 14.1858 62.0986 14.2432 61.6915 14.3521L61.3877 14.4209C61.3361 14.4324 61.2845 14.4438 61.2329 14.461L61.0838 14.5069L60.4876 14.6904C60.2926 14.7592 60.0977 14.8337 59.9028 14.9082L59.6104 15.0229L59.3295 15.149C59.1403 15.235 58.9511 15.321 58.7676 15.4127L58.223 15.7051L58.0854 15.7797C58.0395 15.8026 57.9936 15.8313 57.9535 15.8542L57.6955 16.0147L57.4375 16.1752L57.3057 16.2555C57.2598 16.2842 57.2197 16.3071 57.1795 16.3415L56.6865 16.6912C56.6062 16.7486 56.5202 16.8059 56.44 16.869L56.2049 17.0581L55.7348 17.4365L55.2933 17.8379L55.0755 18.0385C55.0009 18.1016 54.9379 18.1761 54.8633 18.2449L54.4506 18.6634C54.3072 18.801 54.1868 18.9501 54.055 19.0992L53.6708 19.5406C53.5505 19.6897 53.4301 19.8445 53.3097 19.9935L53.1319 20.2229C53.0746 20.2974 53.0115 20.3719 52.9599 20.4522L52.6274 20.9223C52.5185 21.0771 52.4038 21.2319 52.3006 21.3924C51.4636 22.6594 50.7641 23.9838 50.1736 25.3368C49.5659 26.6727 49.09 28.0486 48.683 29.4246L48.5339 29.9406L48.4594 30.1985C48.4365 30.2845 48.4135 30.3705 48.3906 30.4565L48.2301 31.0987C47.5306 30.2387 46.7681 29.4074 45.9483 28.6277C45.0768 27.8021 44.1309 27.0338 43.1046 26.3573C42.0784 25.6808 40.9776 25.1018 39.8138 24.6431C38.65 24.1845 37.4345 23.8577 36.1962 23.6742C35.577 23.5825 34.9578 23.5309 34.3386 23.508L34.1036 23.4965C34.029 23.4965 33.9488 23.4965 33.8742 23.4908C33.7194 23.4908 33.5647 23.485 33.4099 23.4908C33.2551 23.4965 33.106 23.4965 32.9455 23.5022L32.4639 23.5366L32.2231 23.5538C32.1428 23.5596 32.0626 23.571 31.9823 23.5825L31.495 23.6455L31.3746 23.6627L31.2542 23.6857L31.0134 23.7315L30.7726 23.7774C30.6923 23.7946 30.6121 23.8061 30.5318 23.829L30.0502 23.9551C29.97 23.9781 29.8897 23.9953 29.8094 24.0239L29.5744 24.0985C29.4196 24.1501 29.2591 24.2017 29.1043 24.259L28.6399 24.4425C28.5653 24.4769 28.4851 24.5055 28.4105 24.5399L28.187 24.6489C28.0379 24.7234 27.8888 24.7922 27.7398 24.8667L27.304 25.1075C27.2295 25.1476 27.1607 25.1878 27.0862 25.2336L26.8741 25.3655C26.7365 25.4572 26.5931 25.5432 26.4555 25.635L26.0542 25.9273C25.9166 26.0248 25.7905 26.128 25.6644 26.2312L25.4752 26.386C25.4121 26.4376 25.349 26.4892 25.286 26.5465L24.9248 26.8791L24.8331 26.965L24.7471 27.051L24.5751 27.223L24.4031 27.395L24.3171 27.481L24.2368 27.5728L23.9157 27.9397C23.503 28.4327 23.1131 28.9487 22.7806 29.4876C22.0869 30.554 21.5537 31.6892 21.1294 32.853C21.0721 32.9963 21.0262 33.1454 20.9804 33.2945C20.9345 33.4435 20.8772 33.5868 20.837 33.7359C20.751 34.034 20.6593 34.3264 20.5905 34.6245C20.4357 35.2208 20.3211 35.8228 20.2236 36.4305L20.1605 36.8834C20.1491 36.9579 20.1376 37.0325 20.1319 37.1127L20.1089 37.3421L20.0631 37.8007L20.0344 38.2594L20.0172 38.4887L20.0115 38.718L20 39.1767C20 39.3315 20 39.4863 20 39.6411V39.8704C20 39.9507 20.0057 40.0195 20.0057 40.094C20.0344 41.2922 20.172 42.479 20.3727 43.6428C20.4701 44.2276 20.5905 44.8009 20.7224 45.3742L20.9345 46.2227C20.9689 46.3661 21.009 46.5037 21.0492 46.647L21.1696 47.0655C21.4964 48.1835 21.8747 49.2728 22.2933 50.3391C22.7175 51.3998 23.1704 52.4432 23.6578 53.458L24.0247 54.2148L24.4031 54.9658C24.5292 55.2181 24.6611 55.4588 24.7872 55.7111L24.9821 56.0838L25.1828 56.4564L25.5898 57.2017C25.7274 57.4483 25.8708 57.689 26.0141 57.9356L26.2262 58.3025C26.295 58.4229 26.3695 58.549 26.4441 58.6694L26.8855 59.3918C26.9601 59.5122 27.0346 59.6326 27.1091 59.753L27.3384 60.1084L27.7971 60.8193L28.2729 61.5188C28.4335 61.7539 28.5883 61.9889 28.7545 62.2182L29.2476 62.9062L29.3737 63.0782L29.4998 63.2502L29.7578 63.5885C29.9298 63.8121 30.0961 64.0414 30.2738 64.265L30.8013 64.93C30.8873 65.039 30.9733 65.1536 31.065 65.2625L31.3345 65.5893C31.5179 65.8072 31.6956 66.0251 31.8791 66.2429L32.441 66.885C32.5327 66.994 32.6244 67.0972 32.7219 67.2061L33.0085 67.5214C33.2035 67.7278 33.3927 67.9399 33.5876 68.1463L34.1838 68.7598C34.2813 68.863 34.3788 68.9662 34.482 69.0636L34.7858 69.3618C34.9922 69.5624 35.1929 69.7631 35.3993 69.958L35.491 70.044C34.6138 70.6747 33.7481 71.3454 32.9111 72.0678C32.0511 72.8131 31.2198 73.6158 30.4343 74.5273C30.0388 74.9803 29.6604 75.4676 29.3049 75.995C28.9495 76.5225 28.6112 77.0901 28.3188 77.7322C28.2443 77.887 28.1812 78.059 28.1124 78.2252C28.0494 78.3972 27.9863 78.5635 27.929 78.7469C27.8716 78.9247 27.8258 79.1139 27.7742 79.2973C27.734 79.4923 27.6882 79.6814 27.6595 79.8821C27.5334 80.6733 27.5506 81.5734 27.7742 82.4391C27.9003 82.9321 28.0322 83.4539 28.1698 83.9756C28.3073 84.4973 28.4507 85.019 28.6055 85.5407C29.8209 89.7145 31.4606 93.7907 33.6392 97.6262C34.7285 99.5411 35.9668 101.387 37.3428 103.136C38.0308 104.013 38.7646 104.856 39.5329 105.67C40.3011 106.484 41.1038 107.269 41.9523 108.009C42.8008 108.749 43.6779 109.459 44.5953 110.119C45.5126 110.772 46.47 111.386 47.4446 111.953C48.4307 112.51 49.4398 113.02 50.4717 113.484L51.2515 113.811C51.5094 113.926 51.7732 114.023 52.0426 114.121L52.4382 114.27L52.6389 114.344C52.7077 114.367 52.7707 114.39 52.8395 114.413L53.6422 114.682C53.774 114.728 53.9116 114.768 54.0435 114.809L54.4506 114.929C54.72 115.009 54.9895 115.095 55.2647 115.158L56.0845 115.37C56.2221 115.41 56.3597 115.433 56.4973 115.468L56.9101 115.56C57.4547 115.691 58.0108 115.777 58.5612 115.886C58.6988 115.915 58.8364 115.932 58.974 115.955L59.3868 116.018L59.7996 116.081L60.006 116.11L60.2124 116.133C62.4311 116.408 64.6556 116.488 66.8628 116.42C67.138 116.414 67.4132 116.391 67.6884 116.379C67.9636 116.362 68.2388 116.351 68.514 116.334L69.3224 116.265L69.7294 116.23C69.867 116.219 69.9989 116.207 70.1422 116.19C70.4231 116.162 70.7041 116.133 70.9907 116.098L71.8507 115.978C72.1374 115.932 72.424 115.875 72.7107 115.823C72.854 115.8 72.9973 115.766 73.1349 115.732L73.5592 115.634C75.8238 115.101 78.0081 114.229 80.0204 113.1C82.0328 111.971 83.8731 110.577 85.5185 109.029C87.1697 107.482 88.6317 105.767 89.9331 103.956C91.2345 102.15 92.3697 100.241 93.3672 98.2741C94.3591 96.3076 95.2076 94.2723 95.9128 92.1912C96.6179 90.1043 97.1798 87.9716 97.5582 85.7701C97.6499 85.2197 97.7302 84.6636 97.7932 84.1017C97.862 83.5399 97.9079 82.9723 97.9366 82.3932C97.971 81.8199 97.9767 81.2294 97.9595 80.6331C97.9538 80.5013 97.948 80.3694 97.9423 80.2318C98.9341 79.5266 99.8629 78.7527 100.734 77.9214C101.273 77.4054 101.789 76.8607 102.282 76.3046C102.77 75.7428 103.245 75.1694 103.693 74.5789C104.134 73.9827 104.558 73.375 104.954 72.7501C105.355 72.1251 105.722 71.483 106.072 70.8352C106.766 69.528 107.368 68.175 107.855 66.7761C107.981 66.4264 108.09 66.0709 108.205 65.7212C108.308 65.3657 108.417 65.0103 108.509 64.6491L108.583 64.3796L108.646 64.1102C108.686 63.9267 108.738 63.749 108.772 63.5655L108.887 63.0152C108.921 62.826 108.961 62.6368 108.99 62.4476C109.265 60.9397 109.357 59.4262 109.294 57.8954ZM78.7649 44.95C79.0114 44.6805 79.2637 44.4225 79.5217 44.1703C80.0319 43.6657 80.5708 43.2071 81.1327 42.8C81.6945 42.393 82.2736 42.0375 82.8756 41.7623C83.4775 41.4814 84.0967 41.2807 84.7159 41.1775L84.8306 41.1603L84.9452 41.1431C85.0198 41.1317 85.1 41.1259 85.1746 41.1145C85.3294 41.0973 85.4841 41.0916 85.6332 41.0916C85.9371 41.0858 86.2352 41.1088 86.5276 41.1546C86.82 41.2005 87.1009 41.275 87.3704 41.3667C87.5022 41.4183 87.6341 41.4642 87.7602 41.5273C87.8863 41.5846 88.0125 41.6477 88.1329 41.7222C88.3737 41.8655 88.5973 42.0261 88.8094 42.2153C89.0158 42.3987 89.2107 42.6051 89.3884 42.8344C89.5662 43.0638 89.7267 43.316 89.8757 43.5855C90.0248 43.8549 90.1509 44.1416 90.2656 44.4454C90.4949 45.0532 90.6555 45.7125 90.7644 46.4062C90.8733 47.0999 90.9249 47.8223 90.9364 48.5504C90.9536 50.0181 90.8045 51.5259 90.5523 53.028C90.4892 53.4064 90.4204 53.779 90.3459 54.1517C90.2713 54.5243 90.1911 54.9027 90.1051 55.2754C89.9273 56.0207 89.7324 56.766 89.5203 57.4999C89.0846 58.9675 88.5743 60.418 87.9723 61.7825C87.8233 62.1208 87.6685 62.4648 87.5022 62.803C87.336 63.147 87.164 63.4853 86.9862 63.8235C86.6308 64.5 86.2524 65.1651 85.8511 65.8187C85.0484 67.1258 84.1655 68.3757 83.1909 69.528C82.0787 70.8466 80.8346 72.0391 79.4414 73.0023C79.6077 72.5609 79.7625 72.1079 79.9058 71.655C80.0778 71.1218 80.2326 70.5772 80.3702 70.0268C80.5078 69.4764 80.6282 68.9146 80.7314 68.3355C80.8288 67.7565 80.9034 67.166 80.932 66.541C80.9607 65.9219 80.9549 65.274 80.8518 64.5688C80.8346 64.4828 80.8231 64.3911 80.8059 64.2994L80.783 64.1675L80.7486 64.0299C80.7256 63.9382 80.7027 63.8465 80.6798 63.7547L80.5938 63.4681C80.5651 63.3763 80.525 63.2731 80.4906 63.1757C80.4504 63.0782 80.416 62.9808 80.3644 62.8776C80.3128 62.7744 80.267 62.6769 80.2154 62.5794C80.158 62.4762 80.095 62.3788 80.0319 62.2756C80.0032 62.224 79.9631 62.1724 79.9287 62.1265L79.8141 61.9774C79.7395 61.88 79.6535 61.7825 79.5618 61.6851C79.5159 61.6392 79.4701 61.5933 79.4242 61.5417L79.2981 61.4271C79.2121 61.3525 79.1261 61.2723 79.0401 61.2092C78.6904 60.934 78.3521 60.7391 78.0138 60.5728C77.9336 60.5327 77.8476 60.4926 77.7673 60.4524L77.5208 60.3492C77.4405 60.3148 77.3603 60.2862 77.28 60.2575L77.0392 60.1715C76.7239 60.0683 76.4143 59.9708 76.1104 59.902C75.5027 59.753 74.9122 59.6498 74.3332 59.5753C73.7541 59.5007 73.1865 59.4491 72.6189 59.4147C72.252 59.3918 71.8851 59.3803 71.5182 59.3689C71.6214 58.8873 71.7303 58.4286 71.8564 57.9642C72.0514 57.2476 72.2749 56.5309 72.5329 55.8143C72.7852 55.0977 73.0776 54.3695 73.3814 53.6472C74.0064 52.2081 74.6886 50.8093 75.4626 49.4849C75.8467 48.8199 76.2595 48.1777 76.6895 47.5586C76.7984 47.4038 76.9073 47.2547 77.0163 47.0999C77.1309 46.9508 77.2399 46.796 77.3545 46.6527C77.5839 46.3546 77.8132 46.0679 78.0482 45.7813C78.2776 45.4946 78.5184 45.2194 78.7649 44.95ZM52.1802 36.4477L52.3408 35.496C52.3981 35.1807 52.4669 34.8653 52.5242 34.55L52.6159 34.0799L52.7249 33.6155L52.8338 33.1511L52.8854 32.9161C52.9026 32.8358 52.9198 32.7613 52.9427 32.6867L53.1835 31.7694C53.2065 31.6949 53.2237 31.6146 53.2466 31.5401L53.3154 31.3165L53.453 30.8636C53.8199 29.6596 54.2442 28.4843 54.7487 27.3606C55.2532 26.2427 55.8322 25.1763 56.4916 24.1959C56.5718 24.0698 56.6578 23.9551 56.7438 23.8347L57.0018 23.4793C57.0419 23.4162 57.0878 23.3646 57.1337 23.3073L57.2713 23.141L57.5407 22.8028L57.8274 22.4817C57.9249 22.3785 58.0108 22.2639 58.114 22.1664L58.4122 21.8683C58.4638 21.8167 58.5096 21.7651 58.5612 21.7192L58.716 21.5816L59.0256 21.3007L59.3467 21.0427L59.5072 20.9166C59.5588 20.8707 59.6161 20.8363 59.6735 20.7962L60.006 20.5611C60.0347 20.5382 60.0633 20.521 60.092 20.5038L60.178 20.4522L60.35 20.349L60.522 20.2458C60.5506 20.2286 60.5793 20.2114 60.608 20.1942L60.694 20.1483L61.0437 19.9649C61.1641 19.9075 61.2845 19.8559 61.3991 19.8043L61.5769 19.7241L61.7603 19.6553C61.8807 19.6094 62.0011 19.5635 62.1215 19.5234L62.4884 19.4145L62.5802 19.3858C62.6088 19.3743 62.6432 19.3743 62.6719 19.3629L62.8611 19.3227C63.1076 19.2539 63.3656 19.231 63.6121 19.1794C63.8644 19.1622 64.1167 19.1221 64.3747 19.1221C64.6269 19.1049 64.8849 19.1278 65.1429 19.1336L65.5156 19.1622L65.613 19.1737C65.6474 19.1737 65.6761 19.1852 65.7105 19.1909L65.8997 19.2196L66.0889 19.2482L66.1347 19.2539L66.1806 19.2654L66.2666 19.2826C66.3239 19.2941 66.3813 19.3055 66.4443 19.3227C66.5017 19.3399 66.559 19.3514 66.6163 19.3686C66.8456 19.4317 67.075 19.5119 67.2986 19.6037C67.7457 19.7871 68.1757 20.0222 68.5771 20.3146C68.7777 20.4636 68.9726 20.6184 69.1618 20.7847L69.2994 20.9166C69.3453 20.9567 69.3912 21.0026 69.437 21.0484C69.4829 21.0943 69.5288 21.1402 69.5746 21.186L69.7065 21.3294C70.4117 22.0919 70.9907 23.0034 71.4895 24.001C71.9826 24.9986 72.4011 26.0707 72.7393 27.2001C72.9056 27.762 73.0661 28.341 73.1923 28.9315C73.3184 29.522 73.4273 30.1183 73.5133 30.726C73.5305 30.8808 73.5592 31.0299 73.5764 31.1847L73.628 31.6433L73.6738 32.1077L73.714 32.5721C73.7369 32.8817 73.7598 33.197 73.7713 33.5066C73.7828 33.6614 73.7885 33.8219 73.7942 33.9767C73.8 34.1315 73.8057 34.292 73.8057 34.4468C73.8344 35.7081 73.7942 36.9866 73.7025 38.2708C73.6108 39.5551 73.4674 40.845 73.2783 42.1407C73.2324 42.4618 73.1808 42.7943 73.1292 43.1211C73.0891 43.3791 73.0489 43.6313 73.0031 43.8893C72.8253 44.1244 72.6476 44.3595 72.4756 44.6002C71.9482 45.3341 71.4551 46.0851 70.9965 46.8534C70.5321 47.6159 70.1021 48.3956 69.7008 49.1753C69.2937 49.9607 68.9153 50.7519 68.5599 51.5546L68.2961 52.1565C68.2101 52.3572 68.1184 52.5579 68.0381 52.7643L67.7859 53.3777C67.7056 53.5841 67.6254 53.7962 67.5451 54.0026C67.2355 54.8454 66.9431 55.7054 66.708 56.594L66.6221 56.9265C66.5934 57.0355 66.5705 57.1501 66.5418 57.2591L66.4615 57.5916L66.387 57.9241C66.3354 58.1477 66.2953 58.3656 66.2551 58.5834C66.2093 58.8013 66.1749 59.0134 66.1347 59.2313L66.0717 59.581C64.9766 59.6785 63.8873 59.8046 62.8038 59.9536C61.0838 60.1887 59.3811 60.4811 57.6841 60.8251C57.6898 60.5327 57.6898 60.2346 57.6898 59.9422C57.6898 59.6613 57.6841 59.3861 57.6783 59.1051L57.6726 58.6866L57.6611 58.2681C57.6497 57.9872 57.6439 57.712 57.6267 57.4311L57.5751 56.594C57.4433 54.3581 57.1337 52.1107 56.6865 49.8862C56.245 47.6618 55.6259 45.4545 54.8347 43.2988L54.6856 42.8918C54.634 42.7599 54.5824 42.628 54.5366 42.4962C54.4334 42.2324 54.3302 41.9745 54.227 41.7107C54.0148 41.189 53.797 40.6673 53.5676 40.1513C53.109 39.1193 52.6217 38.0931 52.0885 37.0841C52.0828 37.0669 52.0713 37.0554 52.0656 37.0382L52.0828 36.935C52.1229 36.763 52.1516 36.6082 52.1802 36.4477ZM35.1298 62.482L34.8833 62.1838C34.803 62.0864 34.7228 61.9832 34.6425 61.88L34.1666 61.2723C34.0061 61.0716 33.857 60.8595 33.7023 60.6531L33.4729 60.3435L33.3583 60.1887L33.2493 60.0282L32.8021 59.3975C32.6531 59.1854 32.5098 58.9733 32.3664 58.7554L31.9364 58.1133L31.5236 57.4597L31.3173 57.1329C31.2485 57.024 31.1854 56.9093 31.1166 56.8004L30.721 56.1354C30.6522 56.0264 30.5891 55.9118 30.5261 55.8028L30.3369 55.4646C30.2108 55.241 30.0789 55.0174 29.9585 54.7881L29.5916 54.1058L29.4081 53.7618L29.2304 53.4121C29.11 53.1771 28.9896 52.9477 28.8749 52.7127L28.5252 52.0132L28.187 51.3138C27.7455 50.3793 27.327 49.439 26.9429 48.4931L26.6619 47.7821C26.5702 47.5471 26.4899 47.3063 26.3982 47.0712C26.3065 46.8362 26.2319 46.5954 26.1517 46.3603L26.0313 46.0049C25.9912 45.8845 25.9568 45.7641 25.9166 45.6494L25.8077 45.294C25.7733 45.1736 25.7332 45.0532 25.6988 44.9328L25.5038 44.2161C25.3892 43.7345 25.263 43.2587 25.177 42.7771L25.1025 42.4159L25.0452 42.0547L24.9878 41.6935L24.9592 41.5158L24.9362 41.3381L24.8503 40.6042L24.7929 39.8819C24.7872 39.8245 24.7815 39.7615 24.7815 39.7041L24.7757 39.5321C24.77 39.4175 24.7643 39.2971 24.7643 39.1824V38.8327V38.655L24.77 38.4772L24.7815 38.1275L24.8044 37.7778L24.8159 37.6001C24.8216 37.5427 24.8273 37.4854 24.8331 37.4281L24.8675 37.0783C24.9305 36.614 24.9936 36.1496 25.0968 35.6966C25.1426 35.4673 25.2 35.2437 25.2573 35.0201C25.286 34.9055 25.3204 34.7965 25.3548 34.6876C25.3892 34.5787 25.4178 34.464 25.458 34.3551C25.5325 34.1372 25.6013 33.9194 25.693 33.7072C25.7332 33.5983 25.7733 33.4894 25.8192 33.3862L25.9568 33.0709C26.0026 32.9677 26.0542 32.8645 26.1001 32.7613C26.1517 32.6581 26.1975 32.5549 26.2491 32.4574C26.3581 32.2625 26.4613 32.0618 26.5817 31.8726C26.811 31.4885 27.0747 31.1331 27.3442 30.7891L27.5563 30.5425L27.6079 30.4795L27.6652 30.4221L27.7742 30.3075L27.8831 30.1871C27.9003 30.1699 27.9175 30.147 27.9404 30.1298L27.9978 30.0782L28.2328 29.8603C28.5539 29.5851 28.8807 29.3099 29.2361 29.0978L29.368 29.0118C29.4138 28.9831 29.4597 28.9602 29.5056 28.9315L29.775 28.7767C29.8668 28.7309 29.9642 28.685 30.056 28.6391L30.1993 28.5703C30.2452 28.5474 30.2968 28.5302 30.3426 28.513L30.635 28.3983C30.7325 28.3639 30.8357 28.3353 30.9331 28.3009L31.0822 28.2493C31.1338 28.2321 31.1854 28.2206 31.237 28.2091L31.5408 28.1289C31.5924 28.1117 31.644 28.1059 31.6956 28.0945L31.8504 28.0658L32.0052 28.0371L32.0855 28.0199L32.1658 28.0085L32.4868 27.9684C32.5384 27.9626 32.59 27.9512 32.6473 27.9512L32.8079 27.9397L33.1347 27.9168C33.2493 27.911 33.364 27.911 33.4844 27.911C33.5991 27.9053 33.7137 27.911 33.8341 27.911C33.8914 27.911 33.9488 27.911 34.0061 27.911L34.1781 27.9168C34.6368 27.934 35.0954 27.9798 35.5483 28.0543C36.4484 28.1977 37.3313 28.4442 38.1798 28.7882C39.0284 29.1322 39.8367 29.5794 40.6107 30.1068C42.1529 31.1675 43.5289 32.5549 44.7328 34.12C45.3348 34.9055 45.8967 35.731 46.4241 36.591C46.6477 36.9522 46.8599 37.3191 47.0662 37.6918L47.0548 37.7835L47.1236 37.7893C47.393 38.2708 47.651 38.7582 47.8976 39.2512C48.3562 40.1628 48.7862 41.0973 49.1875 42.049C49.3882 42.5248 49.5831 43.0064 49.7723 43.488C49.8698 43.7288 49.9615 43.9696 50.0532 44.2161C50.0991 44.3365 50.145 44.4626 50.1908 44.5773L50.3169 44.9385L50.5692 45.6551C50.6495 45.8959 50.724 46.1425 50.7985 46.3833L50.9132 46.7444C50.9533 46.8648 50.9877 46.9852 51.0221 47.1114L51.2285 47.8509C51.2629 47.9713 51.2973 48.0975 51.3317 48.2179L51.4234 48.5905L51.6069 49.3358C51.6642 49.5824 51.7158 49.8346 51.7732 50.0869L51.8534 50.4595C51.8649 50.5226 51.8821 50.5857 51.8936 50.6487L51.928 50.8379C52.0254 51.3424 52.1286 51.847 52.2032 52.3572L52.3293 53.1197L52.4382 53.888L52.4955 54.2721L52.5471 54.6562L52.6446 55.4244L52.7306 56.1984L52.7765 56.5883L52.8166 56.9781L52.8969 57.7578L52.9657 58.5376L53.0001 58.9274L53.0287 59.3173L53.0918 60.1027L53.2122 61.8685C52.2146 62.1322 51.2228 62.4189 50.231 62.7342C49.715 62.9005 49.1932 63.0667 48.6773 63.2502C48.1613 63.4337 47.6453 63.6229 47.1293 63.8235C46.6191 64.0242 46.1145 64.2306 45.6158 64.4427C45.117 64.6548 44.6182 64.8784 44.1251 65.1078C42.6345 65.7957 41.1726 66.541 39.745 67.3552C39.4239 67.0628 39.1029 66.7646 38.7876 66.455C38.6041 66.2773 38.4264 66.0939 38.2429 65.9161L37.9735 65.6467C37.8817 65.5549 37.7957 65.4632 37.7097 65.3715L37.1823 64.8154L36.6663 64.242L36.4083 63.9554C36.3223 63.8579 36.242 63.7605 36.156 63.663L35.6515 63.0782C35.4509 62.8833 35.2903 62.6826 35.1298 62.482ZM92.9659 84.9789C92.6105 86.888 92.0945 88.8029 91.4409 90.6662C90.7873 92.5295 90.0019 94.3526 89.096 96.1069C88.1902 97.8613 87.164 99.5411 86.0116 101.118C84.8592 102.689 83.5807 104.156 82.1818 105.458C80.783 106.759 79.2522 107.894 77.6182 108.8C75.9843 109.706 74.2414 110.383 72.4412 110.801L72.103 110.876C71.9883 110.898 71.8794 110.927 71.7647 110.944L71.0767 111.065L70.3887 111.162C70.1537 111.191 69.9129 111.208 69.6778 111.237C69.5632 111.248 69.437 111.26 69.3109 111.271L68.9382 111.3L68.1872 111.363C67.9407 111.38 67.6942 111.386 67.4476 111.403C67.2011 111.414 66.9546 111.432 66.708 111.437C64.7416 111.495 62.7808 111.414 60.8545 111.168L60.671 111.145L60.4933 111.116L60.1321 111.059L59.7709 111.002C59.6505 110.984 59.5301 110.967 59.4097 110.944C58.9339 110.853 58.458 110.772 57.9879 110.658C57.0419 110.457 56.1189 110.188 55.2016 109.901L54.5194 109.666C54.462 109.649 54.4047 109.626 54.3474 109.609L54.1811 109.545L53.8428 109.419C53.3899 109.259 52.9542 109.058 52.5127 108.875C51.6413 108.479 50.7871 108.049 49.95 107.579C49.1245 107.097 48.3161 106.581 47.5364 106.025C46.7567 105.463 46.0056 104.861 45.2832 104.225C44.5551 103.594 43.8671 102.912 43.2021 102.207C42.537 101.502 41.9007 100.768 41.2987 99.9998C40.089 98.469 38.9997 96.8351 38.0193 95.1208C37.0389 93.4066 36.1732 91.6179 35.4107 89.7775C35.0266 88.8602 34.6769 87.9257 34.3444 86.9855C34.0118 86.0453 33.708 85.0878 33.4271 84.1246C33.2837 83.6431 33.1519 83.1615 33.02 82.6742C32.8881 82.1868 32.762 81.6938 32.6301 81.1778C32.6129 81.1033 32.6015 81.0287 32.5958 80.937C32.59 80.851 32.5958 80.7478 32.613 80.6274C32.6187 80.5701 32.6359 80.507 32.6473 80.444C32.6645 80.3752 32.6817 80.3121 32.7047 80.2376C32.7219 80.1688 32.7563 80.0942 32.7792 80.0197C32.8136 79.9452 32.8365 79.8706 32.8767 79.7904C32.9455 79.6356 33.0315 79.4693 33.1232 79.3088C33.1748 79.2285 33.2207 79.1425 33.2723 79.0565L33.3525 78.9304L33.4385 78.8043C33.6679 78.466 33.9316 78.1278 34.2182 77.7895C34.7973 77.1187 35.4623 76.4594 36.179 75.8345C36.8956 75.2096 37.6581 74.6076 38.455 74.0343C39.2519 73.461 40.0718 72.9106 40.9146 72.3889C41.7573 71.8614 42.6173 71.3626 43.4945 70.8868C44.3717 70.4052 45.2603 69.9523 46.1661 69.5223C47.0662 69.0923 47.9836 68.6852 48.9009 68.3069C49.3538 68.1177 49.8124 67.9399 50.2825 67.7679C50.7469 67.5959 51.2171 67.4297 51.6929 67.2692C53.5906 66.6328 55.5399 66.0824 57.5121 65.6008C59.4843 65.1192 61.4737 64.7122 63.4745 64.3911C65.4754 64.0701 67.482 63.8293 69.4657 63.7146C70.4575 63.663 71.4436 63.6401 72.4011 63.6745C72.8827 63.6917 73.3528 63.7261 73.8114 63.7719C74.2701 63.8235 74.7115 63.8923 75.1186 63.9841C75.325 64.0299 75.5142 64.0815 75.6976 64.1388L75.8295 64.1847C75.8754 64.2019 75.9155 64.2134 75.9556 64.2306L76.076 64.2764L76.1792 64.3223C76.3111 64.3854 76.4315 64.4484 76.4888 64.5C76.5118 64.5115 76.5175 64.523 76.5289 64.5344C76.5347 64.5402 76.5404 64.5459 76.5462 64.5459C76.5462 64.5459 76.5519 64.5402 76.5519 64.5516L76.5576 64.5574C76.5576 64.5574 76.5634 64.5574 76.5634 64.5688C76.5691 64.5803 76.5748 64.5918 76.5863 64.5975C76.592 64.609 76.6035 64.6319 76.6092 64.6491C76.6207 64.6606 76.6264 64.6892 76.6379 64.7122C76.6493 64.7351 76.6608 64.758 76.6665 64.7867C76.678 64.8154 76.6837 64.844 76.6952 64.8727L76.7239 64.9759L76.7353 65.0275L76.7468 65.0848L76.7697 65.1995C76.8213 65.532 76.8443 65.9333 76.8271 66.3518C76.8156 66.7761 76.7697 67.2233 76.7009 67.6762C76.6321 68.1291 76.5404 68.5878 76.4258 69.0522C76.2079 69.9752 75.9155 70.904 75.583 71.8213C74.9065 73.6559 74.0522 75.4504 73.0432 77.1359C72.7909 77.5602 72.5272 77.973 72.2577 78.3743C71.9883 78.7813 71.7074 79.1769 71.415 79.5611C70.8302 80.3293 70.1881 81.0402 69.5058 81.6651C68.8236 82.2843 68.0897 82.8117 67.3616 83.1844C67.0004 83.3679 66.6392 83.5169 66.2953 83.6144L66.1691 83.6488C66.1462 83.6545 66.129 83.6603 66.1003 83.666L66.0201 83.6832L65.6933 83.7635L65.527 83.8036C65.4697 83.8151 65.4181 83.8265 65.3608 83.838L65.0282 83.9068C63.2682 84.2565 61.4794 84.3081 59.7193 84.0329C59.2779 83.9584 58.8422 83.8781 58.4064 83.7692C57.9707 83.6603 57.5407 83.5341 57.1165 83.3908C56.6922 83.2475 56.2737 83.0869 55.8724 82.9092C55.7692 82.8691 55.6717 82.8175 55.5743 82.7774C55.4768 82.7315 55.3793 82.6856 55.2819 82.6398C55.236 82.6168 55.1844 82.5939 55.1385 82.571C55.0927 82.548 55.0468 82.5251 55.0009 82.5022L54.8748 82.4334L54.8175 82.4047L54.7945 82.3932C54.7888 82.3875 54.7773 82.3875 54.7945 82.3932L51.2859 83.666C51.2457 84.3884 51.1425 85.1222 50.9763 85.8561C50.8043 86.5842 50.5692 87.318 50.2653 88.0289C49.9615 88.7456 49.5888 89.445 49.1531 90.1215C48.9353 90.4598 48.7002 90.7866 48.4479 91.1076C48.3218 91.2682 48.1957 91.423 48.0581 91.5777C47.9893 91.6523 47.9262 91.7268 47.8574 91.8013L47.7542 91.9103L47.6568 92.0135L48.0753 92.6843L48.2358 92.6097L48.3906 92.5409C48.4938 92.4951 48.5913 92.4435 48.6887 92.3919C48.8837 92.2887 49.0786 92.1797 49.2735 92.0708C49.6576 91.8472 50.0303 91.6007 50.3972 91.3427C51.1253 90.821 51.8248 90.2305 52.4726 89.5711C53.1262 88.9176 53.7224 88.1895 54.2671 87.4097C54.2786 87.3983 54.2843 87.3868 54.29 87.3696C54.6913 87.5588 55.0927 87.7251 55.5055 87.8799C56.0673 88.092 56.6349 88.2697 57.2139 88.4245C57.793 88.5736 58.3778 88.6997 58.9683 88.7914L59.4155 88.8545C59.5645 88.8774 59.7136 88.8889 59.8627 88.9061C60.1608 88.9405 60.4589 88.9577 60.757 88.9806C61.359 89.0036 61.961 89.0208 62.5572 88.9806C63.1592 88.9577 63.7555 88.8889 64.346 88.8029C64.495 88.78 64.6384 88.7513 64.7874 88.7226C64.9365 88.694 65.0798 88.671 65.2289 88.6366L65.6646 88.5334C65.8079 88.499 65.957 88.4646 66.1003 88.4245L66.5303 88.3041C66.5991 88.2812 66.6737 88.264 66.7424 88.2411L66.9546 88.1723L67.3731 88.0289L67.4763 87.9945C67.5107 87.9831 67.5566 87.9659 67.5967 87.9487L67.8375 87.8569C68.4739 87.5989 69.0529 87.2779 69.5861 86.9282C70.1193 86.5784 70.6066 86.1943 71.0595 85.7987C71.5124 85.4031 71.9424 84.9904 72.3437 84.5718C73.1464 83.7291 73.8688 82.8519 74.5453 81.9518C74.7173 81.7282 74.8778 81.4989 75.0441 81.2753C75.2046 81.0459 75.3651 80.8166 75.5199 80.5873C75.8295 80.1286 76.1334 79.6585 76.42 79.1827C76.7984 78.5577 77.1539 77.9271 77.4921 77.285C77.624 77.5602 77.7673 77.8239 77.9164 78.0934C78.3292 78.7928 78.8222 79.4521 79.3955 80.0541C79.9688 80.6503 80.611 81.1835 81.3104 81.6365C82.0099 82.0836 82.7494 82.4563 83.5234 82.743C84.2916 83.0296 85.0828 83.236 85.8797 83.3679C86.6766 83.4997 87.4793 83.5628 88.2762 83.5571C89.0731 83.5513 89.8643 83.4825 90.6497 83.3564C91.4294 83.2303 92.2034 83.0468 92.9602 82.806C93.0634 82.7716 93.1666 82.7372 93.264 82.7028C93.2354 82.9837 93.2067 83.2647 93.1666 83.5513C93.1264 84.0214 93.0462 84.503 92.9659 84.9789ZM104.375 57.97C104.352 59.1453 104.203 60.3378 103.951 61.4787C103.916 61.622 103.882 61.7596 103.847 61.9029L103.727 62.3444C103.693 62.4934 103.647 62.6368 103.601 62.7858L103.538 63.0037L103.469 63.2215C103.383 63.5139 103.28 63.8006 103.182 64.093C103.079 64.3796 102.976 64.6663 102.861 64.953C102.42 66.0939 101.904 67.2118 101.325 68.2954C101.256 68.433 101.176 68.5648 101.101 68.6967L100.992 68.8974L100.878 69.098C100.797 69.2299 100.723 69.3618 100.643 69.4936L100.402 69.8892C100.075 70.4109 99.7368 70.9212 99.3813 71.42C99.0201 71.913 98.6532 72.4003 98.2691 72.8705C97.8792 73.3406 97.4722 73.7878 97.0594 74.2292C96.6409 74.6649 96.2052 75.0777 95.7522 75.479C95.305 75.8804 94.8407 76.253 94.3591 76.6027C94.2387 76.6887 94.1183 76.7805 93.9979 76.8607C93.8775 76.941 93.7514 77.0327 93.6367 77.113C93.4074 77.2678 93.1723 77.4054 92.9258 77.543C92.4385 77.8124 91.9282 78.0475 91.4065 78.2482C90.8848 78.4488 90.3401 78.6093 89.7955 78.7355C89.2451 78.8616 88.6947 78.9476 88.1386 78.9877C87.8634 79.0107 87.5825 79.0221 87.3073 79.0221C87.0321 79.0221 86.7569 79.0107 86.4817 78.9877C85.9371 78.9419 85.4039 78.8501 84.8879 78.7068C84.3719 78.5635 83.8789 78.3743 83.4087 78.1335C82.9386 77.8927 82.5029 77.6003 82.1016 77.2621C81.6716 76.8951 81.276 76.4766 80.9263 76.0065C81.1957 75.8976 81.4652 75.7829 81.7289 75.6568C82.566 75.2612 83.3686 74.7968 84.1254 74.2808C84.8879 73.7648 85.6045 73.1972 86.2811 72.601C87.6398 71.397 88.8438 70.0497 89.9216 68.6164C90.4605 67.8998 90.965 67.1602 91.4409 66.4034C91.9167 65.6409 92.3582 64.8612 92.7653 64.0414C93.1666 63.2215 93.5278 62.3902 93.8431 61.5475C94.1641 60.7047 94.4393 59.8562 94.6859 58.9962C94.9324 58.1362 95.1388 57.2705 95.3108 56.3934C95.3968 55.9576 95.477 55.5162 95.5458 55.0747C95.6146 54.6333 95.672 54.1861 95.7236 53.7389C95.8612 52.5005 95.9242 51.245 95.9013 49.9722C96.1478 49.8862 96.4001 49.806 96.6466 49.7429C96.9218 49.6741 97.1913 49.6168 97.4665 49.5766C98.55 49.4161 99.5877 49.548 100.505 49.9378C100.964 50.1327 101.394 50.3907 101.789 50.7061L101.864 50.7634L101.933 50.8207C101.978 50.8609 102.024 50.901 102.064 50.9411C102.15 51.0214 102.236 51.1131 102.317 51.1991C102.477 51.3768 102.626 51.566 102.764 51.7667C103.039 52.1623 103.286 52.5923 103.503 53.0567C103.716 53.521 103.893 54.0313 104.025 54.5645C104.289 55.6308 104.392 56.7947 104.375 57.97Z" fill="black"/>
</svg>
