<svg width="1278" height="494" viewBox="0 0 1278 494" fill="none" xmlns="http://www.w3.org/2000/svg">
<path d="M503 242.775L524.448 218.052C524.933 217.461 525.438 216.895 525.978 216.363C526.513 215.826 526.993 215.345 527.423 214.91C527.958 214.373 528.493 213.862 529.028 213.381V213.14C528.438 213.195 527.848 213.25 527.258 213.301C526.723 213.356 526.133 213.398 525.489 213.423C524.844 213.449 524.204 213.461 523.559 213.461H505.09V199.043H551.365V211.687L530.077 236.25C528.682 237.808 527.372 239.206 526.142 240.439C525.497 241.081 524.857 241.702 524.212 242.289V242.534C524.802 242.479 525.472 242.424 526.218 242.374C526.807 242.319 527.515 242.281 528.345 242.251C529.175 242.226 530.043 242.213 530.957 242.213H552.89V256.631H503V242.775Z" fill="white"/>
<path fill-rule="evenodd" clip-rule="evenodd" d="M593.849 199.043H576.736L555.523 256.627H572.232L575.046 248.172H594.489L597.303 256.627H615.137L593.849 199.043ZM590.713 236.574H578.824L582.599 225.298C583.134 223.794 583.614 222.211 584.044 220.547C584.259 219.63 584.499 218.748 584.768 217.89H584.928C585.198 218.748 585.438 219.634 585.653 220.547C586.079 222.211 586.563 223.794 587.098 225.298L590.713 236.574Z" fill="white"/>
<path d="M657.038 250.508H656.878C655.058 253.139 652.741 255.048 649.927 256.23C647.113 257.409 643.94 258 640.406 258C636.551 258 633.016 257.358 629.802 256.066C626.587 254.778 623.802 252.873 621.447 250.347C618.768 247.501 616.775 244.198 615.461 240.444C614.146 236.685 613.493 232.551 613.493 228.04C613.493 223.8 614.146 219.855 615.461 216.202C616.771 212.549 618.646 209.373 621.085 206.658C623.52 203.946 626.507 201.826 630.042 200.297C633.576 198.769 637.566 198 642.011 198C649.56 198 655.614 199.829 660.169 203.478C664.719 207.131 667.453 212.178 668.363 218.618H652.139C651.709 216.739 650.664 215.142 649.004 213.825C647.344 212.511 645.229 211.852 642.66 211.852C640.625 211.852 638.855 212.258 637.355 213.064C635.856 213.871 634.596 214.99 633.581 216.413C632.561 217.841 631.798 219.551 631.289 221.541C630.779 223.534 630.526 225.709 630.526 228.078C630.526 230.447 630.808 232.639 631.369 234.658C631.929 236.681 632.763 238.417 633.859 239.865C634.954 241.318 636.294 242.463 637.878 243.299C639.458 244.131 641.265 244.549 643.3 244.549C646.354 244.549 648.667 243.822 650.251 242.365C651.831 240.913 652.889 239.194 653.424 237.217H645.79V225.379H669.492V256.627H658.323L657.038 250.508Z" fill="white"/>
<path fill-rule="evenodd" clip-rule="evenodd" d="M711.596 199.043H694.483L673.271 256.627H689.979L692.793 248.172H712.236L715.05 256.627H732.884L711.596 199.043ZM704.847 225.298L708.462 236.574H696.573L700.348 225.298C700.883 223.794 701.363 222.211 701.793 220.547C702.007 219.63 702.248 218.748 702.517 217.89H702.677C702.947 218.748 703.187 219.634 703.402 220.547C703.827 222.211 704.312 223.794 704.847 225.298Z" fill="white"/>
<path d="M726.509 199.043H775.999V213.461H759.53V256.627H742.742V213.461H726.513V199.043H726.509Z" fill="white"/>
<path d="M597.384 292.24C598.92 292.24 600.136 291.808 600.968 290.976C601.816 290.16 602.376 288.848 602.392 287.664H600.76C600.616 289.36 599.576 290.816 597.416 290.816C595.016 290.816 593.448 288.896 593.448 286.048C593.448 283.312 594.872 281.264 597.4 281.264C599.224 281.264 600.36 282.24 600.632 283.696H602.264C602.104 282.56 601.592 281.584 600.744 280.896C599.944 280.24 598.824 279.84 597.432 279.84C593.896 279.84 591.784 282.544 591.784 286.048C591.784 289.648 593.992 292.24 597.384 292.24Z" fill="white"/>
<path d="M607.662 292.24C610.254 292.24 611.838 290.224 611.838 287.712C611.838 285.216 610.254 283.2 607.662 283.2C605.07 283.2 603.454 285.216 603.454 287.712C603.454 290.224 605.07 292.24 607.662 292.24ZM607.646 291.024C605.886 291.024 604.974 289.568 604.974 287.712C604.974 285.856 605.886 284.384 607.646 284.384C609.406 284.384 610.318 285.856 610.318 287.712C610.318 289.568 609.406 291.024 607.646 291.024Z" fill="white"/>
<path d="M613.218 292H614.706V286.704C614.706 285.392 615.81 284.448 616.834 284.448C617.714 284.448 618.306 285.072 618.306 286.128V292H619.778V286.704C619.778 285.392 620.722 284.448 621.81 284.448C622.674 284.448 623.362 285.072 623.362 286.128V292H624.85V286C624.85 284.208 623.762 283.2 622.194 283.2C621.154 283.2 620.146 283.728 619.538 284.8H619.506C619.154 283.744 618.322 283.2 617.282 283.2C616.178 283.2 615.266 283.76 614.738 284.688H614.69V283.408H613.218V292Z" fill="white"/>
<path d="M627.379 280.08C626.851 280.08 626.467 280.464 626.467 280.992C626.467 281.52 626.851 281.904 627.379 281.904C627.907 281.904 628.291 281.52 628.291 280.992C628.291 280.464 627.907 280.08 627.379 280.08ZM626.643 292H628.131V283.408H626.643V292Z" fill="white"/>
<path d="M631.462 286.768C631.462 285.392 632.422 284.448 633.75 284.448C634.918 284.448 635.638 285.072 635.638 286.176V292H637.11V286C637.11 284.208 636.006 283.2 634.214 283.2C632.966 283.2 632.118 283.76 631.494 284.624H631.446V283.408H629.974V292H631.462V286.768Z" fill="white"/>
<path d="M642.483 290.4C640.931 290.4 640.099 289.248 640.099 287.424C640.099 285.616 640.899 284.432 642.467 284.432C644.179 284.432 644.995 285.536 644.995 287.344C644.995 289.088 644.355 290.4 642.483 290.4ZM642.547 295.008C643.699 295.008 644.659 294.752 645.331 294.192C645.987 293.632 646.371 292.784 646.371 291.648V283.408H644.899V284.544H644.867C644.323 283.68 643.491 283.2 642.259 283.2C640.243 283.2 638.579 284.768 638.579 287.408C638.579 289.904 640.147 291.616 642.339 291.616C643.555 291.616 644.307 291.088 644.899 290.24H644.947C644.931 290.512 644.899 290.976 644.899 291.472V291.712C644.899 293.168 644.051 293.856 642.515 293.856C641.235 293.856 640.371 293.488 640.243 292.592H638.851C639.011 294.112 640.291 295.008 642.547 295.008Z" fill="white"/>
<path d="M655.576 292.256C657.592 292.256 659.032 291.36 659.032 289.616C659.032 287.616 657.56 287.232 655.848 286.896C654.392 286.608 653.56 286.432 653.56 285.536C653.56 284.88 654.056 284.336 655.224 284.336C656.456 284.336 657.064 284.832 657.192 285.712H658.68C658.488 284.224 657.416 283.216 655.256 283.216C653.256 283.216 652.104 284.144 652.104 285.616C652.104 287.504 653.624 287.856 655.304 288.208C656.824 288.512 657.544 288.752 657.544 289.696C657.544 290.464 656.968 291.056 655.608 291.056C654.376 291.056 653.416 290.64 653.24 289.392H651.736C651.864 291.136 653.208 292.256 655.576 292.256Z" fill="white"/>
<path d="M664.34 292.24C666.932 292.24 668.516 290.224 668.516 287.712C668.516 285.216 666.932 283.2 664.34 283.2C661.748 283.2 660.132 285.216 660.132 287.712C660.132 290.224 661.748 292.24 664.34 292.24ZM664.324 291.024C662.564 291.024 661.652 289.568 661.652 287.712C661.652 285.856 662.564 284.384 664.324 284.384C666.084 284.384 666.996 285.856 666.996 287.712C666.996 289.568 666.084 291.024 664.324 291.024Z" fill="white"/>
<path d="M673.64 292.24C676.232 292.24 677.816 290.224 677.816 287.712C677.816 285.216 676.232 283.2 673.64 283.2C671.048 283.2 669.432 285.216 669.432 287.712C669.432 290.224 671.048 292.24 673.64 292.24ZM673.624 291.024C671.864 291.024 670.952 289.568 670.952 287.712C670.952 285.856 671.864 284.384 673.624 284.384C675.384 284.384 676.296 285.856 676.296 287.712C676.296 289.568 675.384 291.024 673.624 291.024Z" fill="white"/>
<path d="M680.684 286.768C680.684 285.392 681.644 284.448 682.972 284.448C684.14 284.448 684.86 285.072 684.86 286.176V292H686.332V286C686.332 284.208 685.228 283.2 683.436 283.2C682.188 283.2 681.34 283.76 680.716 284.624H680.668V283.408H679.196V292H680.684V286.768Z" fill="white"/>
<path d="M688.825 288.544H689.641L690.025 283.824V280.096H688.409V283.824L688.825 288.544ZM689.225 290.176C688.681 290.176 688.265 290.592 688.265 291.136C688.265 291.68 688.681 292.08 689.225 292.08C689.769 292.08 690.185 291.68 690.185 291.136C690.185 290.592 689.769 290.176 689.225 290.176Z" fill="white"/>
</svg>
