<svg width="1278" height="494" viewBox="0 0 1278 494" fill="none" xmlns="http://www.w3.org/2000/svg">
<path d="M412 271.625L447.747 230.42C448.554 229.434 449.397 228.491 450.296 227.604C451.188 226.71 451.988 225.908 452.704 225.183C453.596 224.289 454.488 223.437 455.379 222.635V222.234C454.396 222.325 453.413 222.417 452.43 222.501C451.539 222.593 450.556 222.663 449.481 222.705C448.407 222.748 447.34 222.769 446.265 222.769H415.483V198.738H492.608V219.812L457.128 260.75C454.804 263.347 452.62 265.677 450.57 267.732C449.495 268.802 448.428 269.837 447.354 270.815V271.224C448.337 271.132 449.453 271.041 450.696 270.956C451.679 270.865 452.859 270.801 454.242 270.752C455.625 270.71 457.072 270.689 458.595 270.689H495.15V294.719H412V271.625Z" fill="white"/>
<path fill-rule="evenodd" clip-rule="evenodd" d="M563.415 198.738H534.893L499.539 294.712H527.387L532.077 280.62H564.482L569.172 294.712H598.895L563.415 198.738ZM552.163 242.496L558.188 261.29H538.373L544.664 242.496C545.556 239.99 546.356 237.351 547.072 234.577C547.43 233.05 547.831 231.579 548.28 230.15H548.547C548.996 231.579 549.397 233.057 549.755 234.577C550.464 237.351 551.271 239.99 552.163 242.496Z" fill="white"/>
<path d="M668.731 284.513H668.464C665.43 288.898 661.569 292.08 656.878 294.051C652.188 296.015 646.9 297 641.009 297C634.585 297 628.693 295.93 623.336 293.776C617.978 291.629 613.337 288.455 609.412 284.246C604.946 279.502 601.625 273.997 599.434 267.74C597.244 261.475 596.155 254.584 596.155 247.067C596.155 240 597.244 233.426 599.434 227.337C601.618 221.249 604.743 215.955 608.808 211.43C612.867 206.911 617.845 203.377 623.736 200.829C629.627 198.281 636.277 197 643.685 197C656.267 197 666.357 200.048 673.948 206.129C681.531 212.218 686.088 220.629 687.605 231.363H660.564C659.848 228.231 658.107 225.57 655.34 223.374C652.574 221.185 649.049 220.087 644.766 220.087C641.374 220.087 638.425 220.763 635.926 222.107C633.426 223.452 631.326 225.317 629.634 227.689C627.935 230.068 626.664 232.919 625.815 236.234C624.965 239.556 624.544 243.181 624.544 247.13C624.544 251.079 625.014 254.732 625.948 258.097C626.882 261.468 628.272 264.361 630.098 266.775C631.923 269.197 634.156 271.104 636.796 272.498C639.429 273.885 642.442 274.581 645.833 274.581C650.924 274.581 654.779 273.371 657.419 270.942C660.052 268.521 661.814 265.656 662.706 262.362H649.983V242.632H689.486V294.712H670.872L668.731 284.513Z" fill="white"/>
<path fill-rule="evenodd" clip-rule="evenodd" d="M759.66 198.738H731.138L695.784 294.712H723.632L728.322 280.62H760.727L765.417 294.712H795.14L759.66 198.738ZM748.412 242.496L754.436 261.29H734.622L740.913 242.496C741.805 239.99 742.605 237.351 743.321 234.577C743.679 233.05 744.08 231.579 744.529 230.15H744.796C745.245 231.579 745.645 233.057 746.004 234.577C746.713 237.351 747.52 239.99 748.412 242.496Z" fill="white"/>
<path d="M784.515 198.738H866.998V222.769H839.55V294.712H811.569V222.769H784.522V198.738H784.515Z" fill="white"/>
</svg>
